# xmcd
#
# Track frame offsets:
#	150
#	20100
#	41100
#	56325
#	78825
#	93778
#	117103
#	133603
#	150103
#	168103
#	190153
#	214003
#
# Disc length: 3135 seconds
#
# Revision: 1
# Processed by: cddbd v1.5.2PL0 Copyright (c) Steve Scherf et al.
# Submitted via: audiograbber 1.83.01
#
DISCID=8a0c3d0c
DTITLE=Robyn Brown - A Touch Of Blue
DYEAR=1900
DGENRE=Blues
TTITLE0=Moonray
TTITLE1=Hum Drum Blues
TTITLE2=When Lights Are Low
TTITLE3=Sugar
TTITLE4=Chillin' (Whims Of Chambers)
TTITLE5=Romance In The Dark
TTITLE6=Ahmed's Blues
TTITLE7=Soul Of A Man
TTITLE8=Li'l Darlin'
TTITLE9=I'll Remember April
TTITLE10=Change The World
TTITLE11=You Don't Know What Love Is
EXTD=
EXTT0=
EXTT1=
EXTT2=
EXTT3=
EXTT4=
EXTT5=
EXTT6=
EXTT7=
EXTT8=
EXTT9=
EXTT10=
EXTT11=
PLAYORDER=
